<svg version="1.1" xmlns="http://www.w3.org/2000/svg" viewBox="0 0 2916.8152899853544 1152.3500284188767" width="2916.8152899853544" height="1152.3500284188767" filter="invert(93%) hue-rotate(180deg)">
  <!-- svg-source:excalidraw -->
  
  <defs>
    <style class="style-fonts">
      @font-face {
        font-family: "Virgil";
        src: url("https://excalidraw.com/Virgil.woff2");
      }
      @font-face {
        font-family: "Cascadia";
        src: url("https://excalidraw.com/Cascadia.woff2");
      }
    </style>
    
  </defs>
  <rect x="0" y="0" width="2916.8152899853544" height="1152.3500284188767" fill="#ffffff"></rect><g transform="translate(343.6444677932425 10) rotate(0 297.14990234375 17.5)"><text x="0" y="0" font-family="Virgil, Segoe UI Emoji" font-size="28px" fill="#1e1e1e" text-anchor="start" style="white-space: pre;" direction="ltr" dominant-baseline="text-before-edge">React Js by Namestey React | Episode 1  </text></g><g stroke-linecap="round"><g transform="translate(1241.6070494548603 472.5030468061825) rotate(0 66.96742915061361 63.918358589275044)"><path d="M0 0 C5.1 11.45, 8.27 47.42, 30.59 68.73 C52.92 90.03, 116.71 117.99, 133.93 127.84 M0 0 C5.1 11.45, 8.27 47.42, 30.59 68.73 C52.92 90.03, 116.71 117.99, 133.93 127.84" stroke="#1e1e1e" stroke-width="1" fill="none"></path></g><g transform="translate(1241.6070494548603 472.5030468061825) rotate(0 66.96742915061361 63.918358589275044)"><path d="M133.93 127.84 L118.94 127.32 L124.7 116.02 L133.93 127.84" stroke="none" stroke-width="0" fill="#1e1e1e" fill-rule="evenodd"></path><path d="M133.93 127.84 C129.2 127.67, 124.46 127.51, 118.94 127.32 M133.93 127.84 C130 127.7, 126.06 127.56, 118.94 127.32 M118.94 127.32 C120.33 124.59, 121.72 121.86, 124.7 116.02 M118.94 127.32 C121.02 123.25, 123.09 119.17, 124.7 116.02 M124.7 116.02 C126.78 118.69, 128.87 121.36, 133.93 127.84 M124.7 116.02 C126.58 118.42, 128.45 120.83, 133.93 127.84 M133.93 127.84 C133.93 127.84, 133.93 127.84, 133.93 127.84 M133.93 127.84 C133.93 127.84, 133.93 127.84, 133.93 127.84" stroke="#1e1e1e" stroke-width="1" fill="none"></path></g></g><mask></mask><g transform="translate(980.3829379016677 430.6848649880005) rotate(0 213.8218994140625 17.5)"><text x="0" y="0" font-family="Virgil, Segoe UI Emoji" font-size="28px" fill="#1e1e1e" text-anchor="start" style="white-space: pre;" direction="ltr" dominant-baseline="text-before-edge">Different ways to inject react</text></g><g transform="translate(1447.3600895742693 564.2154640746228) rotate(0 192.18984985351562 12.5)"><text x="0" y="0" font-family="Virgil, Segoe UI Emoji" font-size="20px" fill="#1e1e1e" text-anchor="start" style="white-space: pre;" direction="ltr" dominant-baseline="text-before-edge">CDN (content delivery network { link })</text></g><g transform="translate(1458.8668842932238 611.2609186200767) rotate(0 132.03192138671875 10)"><text x="0" y="0" font-family="Virgil, Segoe UI Emoji" font-size="16px" fill="#1e1e1e" text-anchor="start" style="white-space: pre;" direction="ltr" dominant-baseline="text-before-edge">open browser and write react cdn</text></g><g stroke-linecap="round" transform="translate(1390.9964532106328 522.8518277109858) rotate(0 263.63636363636374 66.81818181818187)"><path d="M32 0 C212.96 0, 393.91 0, 495.27 0 M32 0 C127.63 0, 223.25 0, 495.27 0 M495.27 0 C516.61 0, 527.27 10.67, 527.27 32 M495.27 0 C516.61 0, 527.27 10.67, 527.27 32 M527.27 32 C527.27 56.6, 527.27 81.2, 527.27 101.64 M527.27 32 C527.27 51.3, 527.27 70.61, 527.27 101.64 M527.27 101.64 C527.27 122.97, 516.61 133.64, 495.27 133.64 M527.27 101.64 C527.27 122.97, 516.61 133.64, 495.27 133.64 M495.27 133.64 C339.29 133.64, 183.3 133.64, 32 133.64 M495.27 133.64 C388.87 133.64, 282.47 133.64, 32 133.64 M32 133.64 C10.67 133.64, 0 122.97, 0 101.64 M32 133.64 C10.67 133.64, 0 122.97, 0 101.64 M0 101.64 C0 81.24, 0 60.85, 0 32 M0 101.64 C0 77.83, 0 54.02, 0 32 M0 32 C0 10.67, 10.67 0, 32 0 M0 32 C0 10.67, 10.67 0, 32 0" stroke="#1e1e1e" stroke-width="1" fill="none"></path></g><g transform="translate(2093.7237259379053 283.181751851459) rotate(0 171.18389892578125 90)"><text x="0" y="0" font-family="Virgil, Segoe UI Emoji" font-size="16px" fill="#1e1e1e" text-anchor="start" style="white-space: pre;" direction="ltr" dominant-baseline="text-before-edge">crossorigin - The crossorigin attribute </text><text x="0" y="20" font-family="Virgil, Segoe UI Emoji" font-size="16px" fill="#1e1e1e" text-anchor="start" style="white-space: pre;" direction="ltr" dominant-baseline="text-before-edge">sets the mode of the request to an </text><text x="0" y="40" font-family="Virgil, Segoe UI Emoji" font-size="16px" fill="#1e1e1e" text-anchor="start" style="white-space: pre;" direction="ltr" dominant-baseline="text-before-edge">HTTP CORS Request. Web pages often </text><text x="0" y="60" font-family="Virgil, Segoe UI Emoji" font-size="16px" fill="#1e1e1e" text-anchor="start" style="white-space: pre;" direction="ltr" dominant-baseline="text-before-edge">make requests to load resources on </text><text x="0" y="80" font-family="Virgil, Segoe UI Emoji" font-size="16px" fill="#1e1e1e" text-anchor="start" style="white-space: pre;" direction="ltr" dominant-baseline="text-before-edge">other servers. Here is where CORS </text><text x="0" y="100" font-family="Virgil, Segoe UI Emoji" font-size="16px" fill="#1e1e1e" text-anchor="start" style="white-space: pre;" direction="ltr" dominant-baseline="text-before-edge">comes in. A cross-origin request is a </text><text x="0" y="120" font-family="Virgil, Segoe UI Emoji" font-size="16px" fill="#1e1e1e" text-anchor="start" style="white-space: pre;" direction="ltr" dominant-baseline="text-before-edge">request for a resource (e.g. style sheets, </text><text x="0" y="140" font-family="Virgil, Segoe UI Emoji" font-size="16px" fill="#1e1e1e" text-anchor="start" style="white-space: pre;" direction="ltr" dominant-baseline="text-before-edge">iframes, images, fonts, or scripts) from </text><text x="0" y="160" font-family="Virgil, Segoe UI Emoji" font-size="16px" fill="#1e1e1e" text-anchor="start" style="white-space: pre;" direction="ltr" dominant-baseline="text-before-edge">another domain.</text></g><g stroke-linecap="round"><g transform="translate(1919.4738275330133 504.70996072099683) rotate(0 78.9431310206279 -73.13512002850518)"><path d="M0 0 C16.01 -20.76, 69.75 -100.21, 96.07 -124.59 C122.38 -148.96, 147.58 -142.66, 157.89 -146.27 M0 0 C16.01 -20.76, 69.75 -100.21, 96.07 -124.59 C122.38 -148.96, 147.58 -142.66, 157.89 -146.27" stroke="#1e1e1e" stroke-width="1" fill="none"></path></g><g transform="translate(1919.4738275330133 504.70996072099683) rotate(0 78.9431310206279 -73.13512002850518)"><path d="M157.89 -146.27 L145.22 -138.24 L143.59 -150.81 L157.89 -146.27" stroke="none" stroke-width="0" fill="#1e1e1e" fill-rule="evenodd"></path><path d="M157.89 -146.27 C153.23 -143.32, 148.57 -140.37, 145.22 -138.24 M157.89 -146.27 C154.21 -143.94, 150.52 -141.6, 145.22 -138.24 M145.22 -138.24 C144.79 -141.51, 144.37 -144.79, 143.59 -150.81 M145.22 -138.24 C144.58 -143.19, 143.94 -148.13, 143.59 -150.81 M143.59 -150.81 C146.54 -149.88, 149.49 -148.94, 157.89 -146.27 M143.59 -150.81 C147.7 -149.51, 151.8 -148.2, 157.89 -146.27 M157.89 -146.27 C157.89 -146.27, 157.89 -146.27, 157.89 -146.27 M157.89 -146.27 C157.89 -146.27, 157.89 -146.27, 157.89 -146.27" stroke="#1e1e1e" stroke-width="1" fill="none"></path></g></g><mask></mask><g transform="translate(2095.5419077560878 524.6700095291692) rotate(0 297.4398498535156 90)"><text x="0" y="0" font-family="Virgil, Segoe UI Emoji" font-size="16px" fill="#1e1e1e" text-anchor="start" style="white-space: pre;" direction="ltr" dominant-baseline="text-before-edge">The React CDN contain two links </text><text x="0" y="20" font-family="Virgil, Segoe UI Emoji" font-size="16px" fill="#1e1e1e" text-anchor="start" style="white-space: pre;" direction="ltr" dominant-baseline="text-before-edge"></text><text x="0" y="40" font-family="Virgil, Segoe UI Emoji" font-size="16px" fill="#1e1e1e" text-anchor="start" style="white-space: pre;" direction="ltr" dominant-baseline="text-before-edge">react.js :- Its the core of the react </text><text x="0" y="60" font-family="Virgil, Segoe UI Emoji" font-size="16px" fill="#1e1e1e" text-anchor="start" style="white-space: pre;" direction="ltr" dominant-baseline="text-before-edge"></text><text x="0" y="80" font-family="Virgil, Segoe UI Emoji" font-size="16px" fill="#1e1e1e" text-anchor="start" style="white-space: pre;" direction="ltr" dominant-baseline="text-before-edge">reactDom.js :- And the dom is used to perform operation on dom and </text><text x="0" y="100" font-family="Virgil, Segoe UI Emoji" font-size="16px" fill="#1e1e1e" text-anchor="start" style="white-space: pre;" direction="ltr" dominant-baseline="text-before-edge">it help to do some changes in dom like creating a child and other operation</text><text x="0" y="120" font-family="Virgil, Segoe UI Emoji" font-size="16px" fill="#1e1e1e" text-anchor="start" style="white-space: pre;" direction="ltr" dominant-baseline="text-before-edge">the dom link was added because react does not works only in browser </text><text x="0" y="140" font-family="Virgil, Segoe UI Emoji" font-size="16px" fill="#1e1e1e" text-anchor="start" style="white-space: pre;" direction="ltr" dominant-baseline="text-before-edge">which also work for mobile and other like react native </text><text x="0" y="160" font-family="Virgil, Segoe UI Emoji" font-size="16px" fill="#1e1e1e" text-anchor="start" style="white-space: pre;" direction="ltr" dominant-baseline="text-before-edge"></text></g><g stroke-linecap="round"><g transform="translate(1927.3600895742698 597.0816328898144) rotate(0 76.36363636363637 0.8064609334651323)"><path d="M0 0 C25.45 0.27, 127.27 1.34, 152.73 1.61 M0 0 C25.45 0.27, 127.27 1.34, 152.73 1.61" stroke="#1e1e1e" stroke-width="1" fill="none"></path></g><g transform="translate(1927.3600895742698 597.0816328898144) rotate(0 76.36363636363637 0.8064609334651323)"><path d="M152.73 1.61 L139.07 7.81 L139.2 -4.87 L152.73 1.61" stroke="none" stroke-width="0" fill="#1e1e1e" fill-rule="evenodd"></path><path d="M152.73 1.61 C148.11 3.71, 143.49 5.8, 139.07 7.81 M152.73 1.61 C149.64 3.01, 146.56 4.41, 139.07 7.81 M139.07 7.81 C139.11 3.48, 139.16 -0.85, 139.2 -4.87 M139.07 7.81 C139.11 3.85, 139.15 -0.11, 139.2 -4.87 M139.2 -4.87 C142.79 -3.15, 146.38 -1.43, 152.73 1.61 M139.2 -4.87 C142.19 -3.44, 145.18 -2, 152.73 1.61 M152.73 1.61 C152.73 1.61, 152.73 1.61, 152.73 1.61 M152.73 1.61 C152.73 1.61, 152.73 1.61, 152.73 1.61" stroke="#1e1e1e" stroke-width="1" fill="none"></path></g></g><mask></mask><g transform="translate(2083.4596857298284 776.0919583527575) rotate(0 402.2841796875 158.16798124622744)"><text x="0" y="0" font-family="Cascadia, Segoe UI Emoji" font-size="13.874384319844513px" fill="#1e1e1e" text-anchor="start" style="white-space: pre;" direction="ltr" dominant-baseline="text-before-edge">Creating a react element using REACT CDN </text><text x="0" y="16.649261183813415" font-family="Cascadia, Segoe UI Emoji" font-size="13.874384319844513px" fill="#1e1e1e" text-anchor="start" style="white-space: pre;" direction="ltr" dominant-baseline="text-before-edge"></text><text x="0" y="33.29852236762683" font-family="Cascadia, Segoe UI Emoji" font-size="13.874384319844513px" fill="#1e1e1e" text-anchor="start" style="white-space: pre;" direction="ltr" dominant-baseline="text-before-edge">&lt;body&gt;</text><text x="0" y="49.947783551440246" font-family="Cascadia, Segoe UI Emoji" font-size="13.874384319844513px" fill="#1e1e1e" text-anchor="start" style="white-space: pre;" direction="ltr" dominant-baseline="text-before-edge">    &lt;div id="id"&gt;&lt;/div&gt;</text><text x="0" y="66.59704473525366" font-family="Cascadia, Segoe UI Emoji" font-size="13.874384319844513px" fill="#1e1e1e" text-anchor="start" style="white-space: pre;" direction="ltr" dominant-baseline="text-before-edge"></text><text x="0" y="83.24630591906708" font-family="Cascadia, Segoe UI Emoji" font-size="13.874384319844513px" fill="#1e1e1e" text-anchor="start" style="white-space: pre;" direction="ltr" dominant-baseline="text-before-edge"></text><text x="0" y="99.89556710288049" font-family="Cascadia, Segoe UI Emoji" font-size="13.874384319844513px" fill="#1e1e1e" text-anchor="start" style="white-space: pre;" direction="ltr" dominant-baseline="text-before-edge">    &lt;script crossorigin src="https://unpkg.com/react@18/umd/react.development.js"&gt;&lt;/script&gt;</text><text x="0" y="116.5448282866939" font-family="Cascadia, Segoe UI Emoji" font-size="13.874384319844513px" fill="#1e1e1e" text-anchor="start" style="white-space: pre;" direction="ltr" dominant-baseline="text-before-edge">    &lt;script crossorigin src="https://unpkg.com/react-dom@18/umd/react-dom.development.js"&gt;&lt;/script&gt;</text><text x="0" y="133.19408947050732" font-family="Cascadia, Segoe UI Emoji" font-size="13.874384319844513px" fill="#1e1e1e" text-anchor="start" style="white-space: pre;" direction="ltr" dominant-baseline="text-before-edge">    </text><text x="0" y="149.84335065432074" font-family="Cascadia, Segoe UI Emoji" font-size="13.874384319844513px" fill="#1e1e1e" text-anchor="start" style="white-space: pre;" direction="ltr" dominant-baseline="text-before-edge">    &lt;script&gt;</text><text x="0" y="166.49261183813417" font-family="Cascadia, Segoe UI Emoji" font-size="13.874384319844513px" fill="#1e1e1e" text-anchor="start" style="white-space: pre;" direction="ltr" dominant-baseline="text-before-edge"></text><text x="0" y="183.14187302194756" font-family="Cascadia, Segoe UI Emoji" font-size="13.874384319844513px" fill="#1e1e1e" text-anchor="start" style="white-space: pre;" direction="ltr" dominant-baseline="text-before-edge">        const heading = React.createElement('h1',  {}, "Kain");</text><text x="0" y="199.79113420576098" font-family="Cascadia, Segoe UI Emoji" font-size="13.874384319844513px" fill="#1e1e1e" text-anchor="start" style="white-space: pre;" direction="ltr" dominant-baseline="text-before-edge">        </text><text x="0" y="216.4403953895744" font-family="Cascadia, Segoe UI Emoji" font-size="13.874384319844513px" fill="#1e1e1e" text-anchor="start" style="white-space: pre;" direction="ltr" dominant-baseline="text-before-edge">        const root = ReactDOM.createRoot(document.getElementById('id'));</text><text x="0" y="233.0896565733878" font-family="Cascadia, Segoe UI Emoji" font-size="13.874384319844513px" fill="#1e1e1e" text-anchor="start" style="white-space: pre;" direction="ltr" dominant-baseline="text-before-edge">        root.render(heading)</text><text x="0" y="249.73891775720122" font-family="Cascadia, Segoe UI Emoji" font-size="13.874384319844513px" fill="#1e1e1e" text-anchor="start" style="white-space: pre;" direction="ltr" dominant-baseline="text-before-edge"></text><text x="0" y="266.38817894101464" font-family="Cascadia, Segoe UI Emoji" font-size="13.874384319844513px" fill="#1e1e1e" text-anchor="start" style="white-space: pre;" direction="ltr" dominant-baseline="text-before-edge">    &lt;/script&gt;</text><text x="0" y="283.03744012482804" font-family="Cascadia, Segoe UI Emoji" font-size="13.874384319844513px" fill="#1e1e1e" text-anchor="start" style="white-space: pre;" direction="ltr" dominant-baseline="text-before-edge"></text><text x="0" y="299.6867013086415" font-family="Cascadia, Segoe UI Emoji" font-size="13.874384319844513px" fill="#1e1e1e" text-anchor="start" style="white-space: pre;" direction="ltr" dominant-baseline="text-before-edge">&lt;/body&gt;</text></g><g stroke-linecap="round"><g transform="translate(1938.031168084986 659.5645278102985) rotate(0 68.44845626560277 65.61545476015647)"><path d="M0 0 C14.24 18.56, 62.62 89.5, 85.44 111.38 C108.25 133.25, 128.32 127.92, 136.9 131.23 M0 0 C14.24 18.56, 62.62 89.5, 85.44 111.38 C108.25 133.25, 128.32 127.92, 136.9 131.23" stroke="#1e1e1e" stroke-width="1" fill="none"></path></g><g transform="translate(1938.031168084986 659.5645278102985) rotate(0 68.44845626560277 65.61545476015647)"><path d="M136.9 131.23 L122.5 135.45 L124.41 122.91 L136.9 131.23" stroke="none" stroke-width="0" fill="#1e1e1e" fill-rule="evenodd"></path><path d="M136.9 131.23 C133.09 132.35, 129.29 133.46, 122.5 135.45 M136.9 131.23 C132.54 132.51, 128.19 133.78, 122.5 135.45 M122.5 135.45 C123.19 130.95, 123.87 126.45, 124.41 122.91 M122.5 135.45 C123.02 132.07, 123.53 128.7, 124.41 122.91 M124.41 122.91 C127.23 124.79, 130.04 126.67, 136.9 131.23 M124.41 122.91 C127.3 124.84, 130.19 126.76, 136.9 131.23 M136.9 131.23 C136.9 131.23, 136.9 131.23, 136.9 131.23 M136.9 131.23 C136.9 131.23, 136.9 131.23, 136.9 131.23" stroke="#1e1e1e" stroke-width="1" fill="none"></path></g></g><mask></mask><g stroke-linecap="round" transform="translate(901.8290138617789 191.7717135781461) rotate(0 1002.4931380617877 475.28915742036537)"><path d="M32 0 C686.42 0, 1340.84 0, 1972.99 0 M32 0 C664.22 0, 1296.44 0, 1972.99 0 M1972.99 0 C1994.32 0, 2004.99 10.67, 2004.99 32 M1972.99 0 C1994.32 0, 2004.99 10.67, 2004.99 32 M2004.99 32 C2004.99 257.25, 2004.99 482.5, 2004.99 918.58 M2004.99 32 C2004.99 254.76, 2004.99 477.52, 2004.99 918.58 M2004.99 918.58 C2004.99 939.91, 1994.32 950.58, 1972.99 950.58 M2004.99 918.58 C2004.99 939.91, 1994.32 950.58, 1972.99 950.58 M1972.99 950.58 C1318.29 950.58, 663.59 950.58, 32 950.58 M1972.99 950.58 C1440.27 950.58, 907.55 950.58, 32 950.58 M32 950.58 C10.67 950.58, 0 939.91, 0 918.58 M32 950.58 C10.67 950.58, 0 939.91, 0 918.58 M0 918.58 C0 612.37, 0 306.17, 0 32 M0 918.58 C0 683.95, 0 449.33, 0 32 M0 32 C0 10.67, 10.67 0, 32 0 M0 32 C0 10.67, 10.67 0, 32 0" stroke="#1e1e1e" stroke-width="1" fill="none"></path></g><g transform="translate(10 188.54714430217564) rotate(0 123.046875 24)"><text x="0" y="0" font-family="Cascadia, Segoe UI Emoji" font-size="20px" fill="#1e1e1e" text-anchor="start" style="white-space: pre;" direction="ltr" dominant-baseline="text-before-edge">Why react is Fastest </text><text x="0" y="24" font-family="Cascadia, Segoe UI Emoji" font-size="20px" fill="#1e1e1e" text-anchor="start" style="white-space: pre;" direction="ltr" dominant-baseline="text-before-edge"></text></g><g transform="translate(10 230.90162510221217) rotate(0 295.3125 86.39999999999998)"><text x="0" y="0" font-family="Cascadia, Segoe UI Emoji" font-size="16px" fill="#1971c2" text-anchor="start" style="white-space: pre;" direction="ltr" dominant-baseline="text-before-edge"></text><text x="0" y="19.2" font-family="Cascadia, Segoe UI Emoji" font-size="16px" fill="#1971c2" text-anchor="start" style="white-space: pre;" direction="ltr" dominant-baseline="text-before-edge">Changing the DOM Tree is the costly operation which ever seen</text><text x="0" y="38.4" font-family="Cascadia, Segoe UI Emoji" font-size="16px" fill="#1971c2" text-anchor="start" style="white-space: pre;" direction="ltr" dominant-baseline="text-before-edge">and all the framework and library are also tries to optimized </text><text x="0" y="57.599999999999994" font-family="Cascadia, Segoe UI Emoji" font-size="16px" fill="#1971c2" text-anchor="start" style="white-space: pre;" direction="ltr" dominant-baseline="text-before-edge">this process.</text><text x="0" y="76.8" font-family="Cascadia, Segoe UI Emoji" font-size="16px" fill="#1971c2" text-anchor="start" style="white-space: pre;" direction="ltr" dominant-baseline="text-before-edge"></text><text x="0" y="96" font-family="Cascadia, Segoe UI Emoji" font-size="16px" fill="#1971c2" text-anchor="start" style="white-space: pre;" direction="ltr" dominant-baseline="text-before-edge">And react also do something similar as the mentioned </text><text x="0" y="115.19999999999999" font-family="Cascadia, Segoe UI Emoji" font-size="16px" fill="#1971c2" text-anchor="start" style="white-space: pre;" direction="ltr" dominant-baseline="text-before-edge">when a tree was updated this check and compare previous and </text><text x="0" y="134.4" font-family="Cascadia, Segoe UI Emoji" font-size="16px" fill="#1971c2" text-anchor="start" style="white-space: pre;" direction="ltr" dominant-baseline="text-before-edge">new generated DOM tree. And it replace only changes nodes with </text><text x="0" y="153.6" font-family="Cascadia, Segoe UI Emoji" font-size="16px" fill="#1971c2" text-anchor="start" style="white-space: pre;" direction="ltr" dominant-baseline="text-before-edge">new DOM tree </text></g><g stroke-linecap="round"><g transform="translate(555.0196245899114 54.60420134648507) rotate(0 -142.63389952816297 71.07807422108544)"><path d="M0 0 C-47.54 23.69, -237.72 118.46, -285.27 142.16 M0 0 C-47.54 23.69, -237.72 118.46, -285.27 142.16" stroke="#1971c2" stroke-width="1" fill="none"></path></g><g transform="translate(555.0196245899114 54.60420134648507) rotate(0 -142.63389952816297 71.07807422108544)"><path d="M-285.27 142.16 L-275.93 130.42 L-270.27 141.77 L-285.27 142.16" stroke="none" stroke-width="0" fill="#1971c2" fill-rule="evenodd"></path><path d="M-285.27 142.16 C-281.83 137.84, -278.4 133.52, -275.93 130.42 M-285.27 142.16 C-281.69 137.65, -278.1 133.15, -275.93 130.42 M-275.93 130.42 C-274.37 133.54, -272.82 136.66, -270.27 141.77 M-275.93 130.42 C-274.13 134.02, -272.34 137.62, -270.27 141.77 M-270.27 141.77 C-273.91 141.86, -277.56 141.96, -285.27 142.16 M-270.27 141.77 C-276.17 141.92, -282.07 142.07, -285.27 142.16 M-285.27 142.16 C-285.27 142.16, -285.27 142.16, -285.27 142.16 M-285.27 142.16 C-285.27 142.16, -285.27 142.16, -285.27 142.16" stroke="#1971c2" stroke-width="1" fill="none"></path></g></g><mask></mask><g stroke-linecap="round"><g transform="translate(698.4988146673356 52.51784130203873) rotate(0 104.3180022223236 57.89649123338961)"><path d="M0 0 C34.77 19.3, 173.86 96.49, 208.64 115.79 M0 0 C34.77 19.3, 173.86 96.49, 208.64 115.79" stroke="#1971c2" stroke-width="1" fill="none"></path></g><g transform="translate(698.4988146673356 52.51784130203873) rotate(0 104.3180022223236 57.89649123338961)"><path d="M208.64 115.79 L193.67 114.74 L199.83 103.65 L208.64 115.79" stroke="none" stroke-width="0" fill="#1971c2" fill-rule="evenodd"></path><path d="M208.64 115.79 C203.94 115.46, 199.25 115.13, 193.67 114.74 M208.64 115.79 C205.42 115.57, 202.2 115.34, 193.67 114.74 M193.67 114.74 C195.95 110.63, 198.23 106.52, 199.83 103.65 M193.67 114.74 C195.32 111.77, 196.97 108.8, 199.83 103.65 M199.83 103.65 C202.08 106.76, 204.33 109.87, 208.64 115.79 M199.83 103.65 C203.11 108.18, 206.4 112.72, 208.64 115.79 M208.64 115.79 C208.64 115.79, 208.64 115.79, 208.64 115.79 M208.64 115.79 C208.64 115.79, 208.64 115.79, 208.64 115.79" stroke="#1971c2" stroke-width="1" fill="none"></path></g></g><mask></mask></svg>